<?xml version="1.0" encoding="utf-8"?>
<!-- Generator: Adobe Illustrator 25.3.1, SVG Export Plug-In . SVG Version: 6.00 Build 0)  -->
<svg version="1.1" id="Capa_1" xmlns="http://www.w3.org/2000/svg" xmlns:xlink="http://www.w3.org/1999/xlink" x="0px" y="0px"
	 viewBox="0 0 758 743.7" style="enable-background:new 0 0 758 743.7;" xml:space="preserve">
<style type="text/css">
	.st0{fill:#E6E6E6;}
	.st1{fill:#FFFFFF;}
	.st2{fill:#3F3D56;}
	.st3{fill:#F08827;}
	.st4{fill:#FFB8B8;}
	.st5{fill:#2F2E41;}
</style>
<g id="Group_4" transform="translate(-221 -78)">
	<path id="Path_31-192" class="st0" d="M312.5,78c-17.7,0-32,14.3-32,32v678.4c0,17.7,14.3,32,32,32h297c17.7,0,32-14.3,32-32V110
		c0-17.7-14.3-32-32-32H312.5z"/>
	<path id="Path_32-193" class="st1" d="M621.7,235v-54.4c-34.2-7.9-63.5-29.7-80.9-60.2l0,0c-4.1,3-9.1,4.7-14.2,4.7h-43.2
		C506.8,183.5,559.4,225.3,621.7,235z"/>
	<path id="Path_33-194" class="st1" d="M621.7,177.4v-52.3c0-16.1-13-29.1-29.1-29.1c0,0,0,0,0,0h-42v5.1c0,6.5-2.7,12.8-7.4,17.3
		C559.9,148.2,588.4,169.6,621.7,177.4L621.7,177.4z"/>
	<path id="Path_34-195" class="st1" d="M419.8,125h-27c-13.2,0-24-10.7-24-24V96h-39.4c-16.1,0-29.1,13-29.1,29.1c0,0,0,0,0,0v648.2
		c0,16.1,13,29.1,29,29.1c0,0,0.1,0,0.1,0h263.1c1.2,0,2.4-0.1,3.6-0.2c14.6-1.8,25.5-14.2,25.5-28.9V296.2
		C525.9,285.1,446.2,216.8,419.8,125z"/>
	<path id="Path_35-196" class="st1" d="M480.1,125h-57.1c26.3,90,104.7,157,198.7,168.1v-55C557.7,228.3,503.8,185.2,480.1,125
		L480.1,125z"/>
	<path id="Path_36-197" class="st0" d="M601.6,610.8h-270c-2.8,0-5-2.2-5-5v-67c0-2.8,2.2-5,5-5h270c2.8,0,5,2.2,5,5v67
		C606.6,608.5,604.4,610.8,601.6,610.8z M331.6,535.8c-1.7,0-3,1.3-3,3v67c0,1.7,1.3,3,3,3h270c1.7,0,3-1.3,3-3v-67c0-1.7-1.3-3-3-3
		L331.6,535.8z"/>
	<circle id="Ellipse_4" class="st2" cx="366.6" cy="572.3" r="21"/>
	<path id="Path_37-198" class="st0" d="M415.1,558.3c-1.9,0-3.5,1.6-3.5,3.5s1.6,3.5,3.5,3.5h165c1.9,0,3.5-1.6,3.5-3.5
		s-1.6-3.5-3.5-3.5H415.1z"/>
	<path id="Path_38-199" class="st0" d="M415.1,579.3c-1.9,0-3.5,1.6-3.5,3.5s1.6,3.5,3.5,3.5h165c1.9,0,3.5-1.6,3.5-3.5
		s-1.6-3.5-3.5-3.5H415.1z"/>
	<path id="Path_39-200" class="st0" d="M601.6,722.8h-270c-2.8,0-5-2.2-5-5v-67c0-2.8,2.2-5,5-5h270c2.8,0,5,2.2,5,5v67
		C606.6,720.5,604.4,722.8,601.6,722.8z M331.6,647.8c-1.7,0-3,1.3-3,3v67c0,1.7,1.3,3,3,3h270c1.7,0,3-1.3,3-3v-67c0-1.7-1.3-3-3-3
		L331.6,647.8z"/>
	<circle id="Ellipse_5" class="st2" cx="366.6" cy="684.3" r="21"/>
	<path id="Path_40-201" class="st0" d="M415.1,670.3c-1.9,0-3.5,1.6-3.5,3.5s1.6,3.5,3.5,3.5h165c1.9,0,3.5-1.6,3.5-3.5
		s-1.6-3.5-3.5-3.5H415.1z"/>
	<path id="Path_41-202" class="st0" d="M415.1,691.3c-1.9,0-3.5,1.6-3.5,3.5s1.6,3.5,3.5,3.5h165c1.9,0,3.5-1.6,3.5-3.5
		s-1.6-3.5-3.5-3.5H415.1z"/>
	<path id="Path_42-203" class="st2" d="M460.9,472c-52.4,0-95-42.5-95-94.9c0,0,0-0.1,0-0.1c0-0.2,0-0.4,0-0.6
		c0.3-52,42.9-94.4,95-94.4c52.5,0,95,42.5,95,95S513.4,472,460.9,472L460.9,472z M460.9,284c-51.1,0.1-92.6,41.4-93,92.5
		c0,0.2,0,0.4,0,0.5c0,51.4,41.6,93,93,93c51.4,0,93-41.6,93-93C554,325.7,512.3,284,460.9,284C460.9,284,460.9,284,460.9,284z"/>
	<path id="Path_43-204" class="st3" d="M504,374.8l-65-37.5c-1-0.6-2.2-0.2-2.7,0.7c-0.2,0.3-0.3,0.6-0.3,1v75.1c0,1.1,0.9,2,2,2
		c0.4,0,0.7-0.1,1-0.3l65-37.5c1-0.6,1.3-1.8,0.7-2.7C504.5,375.2,504.3,375,504,374.8l-65-37.5c-1-0.6-2.2-0.2-2.7,0.7
		c-0.2,0.3-0.3,0.6-0.3,1v75.1c0,1.1,0.9,2,2,2c0.4,0,0.7-0.1,1-0.3l65-37.5c1-0.6,1.3-1.8,0.7-2.7C504.5,375.2,504.3,375,504,374.8
		L504,374.8z"/>
	<g id="Group_1" transform="translate(-869.284 495.958)">
		<circle id="Ellipse_3" class="st4" cx="1681" cy="-79.8" r="27.9"/>
		<path id="Path_21-206" class="st4" d="M1679.2,76.8c-2.1-6.6,1.5-13.6,8.1-15.7c0.5-0.1,0.9-0.3,1.4-0.4c0.5-0.1,1.1-0.2,1.7-0.2
			l29.4-47.2l-26.9-25.6c-4.3-4-4.6-10.8-0.5-15.2c4-4.3,10.8-4.6,15.2-0.5c0.1,0.1,0.2,0.2,0.3,0.3l37.1,36.6l0.1,0.1
			c2.4,3.6,2.1,8.3-0.7,11.6L1703,69.3c0.1,0.4,0.2,0.8,0.3,1.2c1.4,6.8-3,13.4-9.8,14.7c-0.5,0.1-0.9,0.2-1.4,0.2
			c-0.4,0-0.7,0-1.1,0C1685.6,85.5,1680.8,82,1679.2,76.8z"/>
		<path id="Path_22-207" class="st4" d="M1635,309H1621l-6.6-53.8h20.6L1635,309z"/>
		<path id="Path_23-208" class="st5" d="M1639.1,323.1H1593v-1.1c0-10,8.1-18.1,18.1-18.1c0,0,0,0,0,0h28L1639.1,323.1z"/>
		<path id="Path_24-209" class="st4" d="M1773.6,289.7l-12,7.1l-33.2-42.8l17.7-10.5L1773.6,289.7z"/>
		<path id="Path_25-210" class="st5" d="M1744.7,323.3l-0.6-1c-5.1-8.6-2.3-19.7,6.3-24.8l24.1-14.3l9.8,16.5L1744.7,323.3z"/>
		<path id="Path_26-211" class="st5" d="M1612.6,285.3c-9.3-110-14.9-212.2,19.2-253.9l0.3-0.3l57.5,23l0.1,0.2
			c0.2,0.4,19.3,42.5,14.8,70.7l14.2,65.2l46.2,77.4c1.4,2.4,0.7,5.6-1.8,7c-0.2,0.1-0.4,0.2-0.6,0.3l-20.1,8.8
			c-2.3,1-5.1,0.2-6.4-2l-50.3-82l-28.4-62.9c-0.4-0.9-1.4-1.2-2.3-0.9c-0.6,0.2-0.9,0.8-1,1.4l-15.7,148c-0.3,2.6-2.5,4.6-5.1,4.6
			h-15.6C1615.1,290,1612.9,287.9,1612.6,285.3z"/>
		<path id="Path_27-212" class="st3" d="M1632.1,32.3l-0.3-0.1l0-0.3c-2.1-15,0.4-31.7,7.6-49.6c7.3-18.1,26.7-28.1,45.7-23.6l0,0
			c10.7,2.6,19.8,9.6,25.1,19.3c5.2,9.6,6.2,20.9,2.7,31.2c-9,26.4-20.7,51.1-20.8,51.3l-0.2,0.5L1632.1,32.3z"/>
		<path id="Path_28-213" class="st4" d="M1590.7,94.6c-0.8-6.3,3.1-12.2,9.2-13.9l53.7-103.2c2.9-4.9,9.2-6.6,14.1-3.7
			c4.9,2.9,6.6,9.2,3.7,14.1c-0.1,0.2-0.2,0.3-0.3,0.5l-55,102.5c0.1,0.6,0.2,1.3,0.2,1.9c0.2,7.1-5.4,13-12.5,13.2
			c-0.2,0-0.3,0-0.5,0l0,0c-3.8-0.1-7.5-1.8-9.9-4.8C1591.9,99.2,1591,97,1590.7,94.6L1590.7,94.6z"/>
		<path id="Path_29-214" class="st5" d="M1647.1-95.6h44.4v-19.3c-9.7-3.9-19.3-7.2-25,0C1655.7-114.9,1647.1-106.3,1647.1-95.6z"/>
		<path id="Path_30-215" class="st5" d="M1693.9-118.4c26.5,0,33.9,33.2,33.9,52c0,10.5-4.7,14.2-12.2,15.5l-2.6-14l-6.1,14.6
			c-2.1,0-4.3,0-6.6-0.1l-2.1-4.3l-4.6,4.2c-18.6,0-33.7,2.7-33.7-15.9C1660-85.1,1666.5-118.4,1693.9-118.4z"/>
	</g>
	<g id="Group_2" transform="translate(684 38)">
		<path id="Path_53-216" class="st3" d="M132.7,367v-25.9c0-1.3-1-2.3-2.3-2.3l0,0h-4.7c-1.3,0-2.3,1-2.3,2.3c0,0,0,0,0,0v24.3
			c-8,1.3-13.5,8.9-12.2,16.9c1.3,8,8.9,13.5,16.9,12.2s13.5-8.9,12.2-16.9C139.6,373.1,136.8,369.2,132.7,367L132.7,367z"/>
		<circle id="Ellipse_8" class="st1" cx="126.5" cy="380" r="7"/>
	</g>
</g>
</svg>
