<?xml version="1.0" encoding="utf-8"?>
<!-- Generator: Adobe Illustrator 25.3.1, SVG Export Plug-In . SVG Version: 6.00 Build 0)  -->
<svg version="1.1" id="Capa_1" xmlns:svgjs="http://svgjs.com/svgjs"
	 xmlns="http://www.w3.org/2000/svg" xmlns:xlink="http://www.w3.org/1999/xlink" x="0px" y="0px" viewBox="0 0 512 512"
	 style="enable-background:new 0 0 512 512;" xml:space="preserve">
<style type="text/css">
	.st0{fill:#F08827;}
	.st1{fill:#FFFFFF;}
</style>
<g>
	<path class="st0" d="M80,220c0,5.5-4.5,10-10,10s-10-4.5-10-10s4.5-10,10-10S80,214.5,80,220z"/>
	<path class="st0" d="M452,220c0,5.5-4.5,10-10,10s-10-4.5-10-10s4.5-10,10-10S452,214.5,452,220z"/>
	<path class="st0" d="M502,310c5.5,0,10-4.5,10-10V140c0-5.5-4.5-10-10-10h-21.6c-5-42.2-40.9-75-84.4-75c-1.6,0-3.1,0.1-4.7,0.1
		C382.6,23.4,353.5,0,319,0c-27.8,0-52,15.2-65,37.7C241,15.2,216.8,0,189,0c-34.4,0-63.5,23.3-72.3,55c-0.2,0-0.5,0-0.7,0
		c-43.5,0-79.4,32.8-84.4,75H10c-5.5,0-10,4.5-10,10v160c0,5.5,4.5,10,10,10h18v72H10c-5.5,0-10,4.5-10,10v110c0,5.5,4.5,10,10,10
		h492c5.5,0,10-4.5,10-10V392c0-5.5-4.5-10-10-10h-18v-72H502z M460.2,130H331.8c4.8-31.1,31.8-55,64.2-55
		C428.4,75,455.4,98.9,460.2,130z M319,20c24.6,0,45.5,16.3,52.5,38.6c-22.3,6.7-40.8,22.4-51.2,42.8
		c-11.7-19.4-31.9-33.1-55.5-35.9C269.3,39.7,291.9,20,319,20z M256,85c26.9,0,49.3,19.4,54.1,45H201.9C206.6,104.4,229.1,85,256,85
		z M189,20c27.3,0,50,20,54.3,46.1c-21.9,3.8-40.5,17-51.6,35.3c-11-21.5-30.9-37.8-54.9-43.8C144.1,35.8,164.8,20,189,20z M116,75
		c32.4,0,59.4,23.9,64.2,55H51.8C56.6,98.9,83.6,75,116,75z M492,402v90H20v-90H492z M48,382v-72h92v72H48z M160,382v-72h192v72H160
		z M372,382v-72h92v72H372z M20,290V150h472v140H20z"/>
	<path class="st0" d="M356,170H156c-5.5,0-10,4.5-10,10v80c0,5.5,4.5,10,10,10h200c5.5,0,10-4.5,10-10v-80
		C366,174.5,361.5,170,356,170z M346,250H166v-60h180V250z"/>
	<path class="st0" d="M236,230h80c5.5,0,10-4.5,10-10s-4.5-10-10-10h-80c-5.5,0-10,4.5-10,10S230.5,230,236,230z"/>
	<path class="st0" d="M196,230c5.5,0,10-4.5,10-10s-4.5-10-10-10s-10,4.5-10,10S190.5,230,196,230z"/>
	<path class="st1" d="M80,447c0,5.5-4.5,10-10,10s-10-4.5-10-10s4.5-10,10-10S80,441.5,80,447z"/>
	<path class="st1" d="M452,447c0,5.5-4.5,10-10,10s-10-4.5-10-10s4.5-10,10-10S452,441.5,452,447z"/>
</g>
</svg>
