<?xml version="1.0" encoding="utf-8"?>
<!-- Generator: Adobe Illustrator 25.3.1, SVG Export Plug-In . SVG Version: 6.00 Build 0)  -->
<svg version="1.1" id="Capa_1" xmlns:svgjs="http://svgjs.com/svgjs"
	 xmlns="http://www.w3.org/2000/svg" xmlns:xlink="http://www.w3.org/1999/xlink" x="0px" y="0px" viewBox="0 0 512 512"
	 style="enable-background:new 0 0 512 512;" xml:space="preserve">
<style type="text/css">
	.st0{fill:#F08827;}
</style>
<g>
	<g>
		<path class="st0" d="M512,110c0-13.8-9.4-25.5-22.1-28.9c1.4-3.4,2.1-7.2,2.1-11.1c0-13.8-9.4-25.5-22.1-28.9
			c1.4-3.4,2.1-7.2,2.1-11.1c0-16.5-13.5-30-30-30H334.2c-22.4,0-45,5.3-65.5,15.5l-9.1,4.5H150c-3.9,0-7.6,0.8-11.1,2.1
			C135.5,9.4,123.8,0,110,0S84.5,9.4,81.1,22.1C77.6,20.8,73.9,20,70,20c-13.8,0-25.5,9.4-28.9,22.1C37.6,40.8,33.9,40,30,40
			C13.5,40,0,53.5,0,70v107.8c0,42.2,18.1,69.7,20,74.6V362c0,3.9,0.8,7.6,2.1,11.1C9.4,376.5,0,388.2,0,402s9.4,25.5,22.1,28.9
			c-1.4,3.4-2.1,7.2-2.1,11.1c0,13.8,9.4,25.5,22.1,28.9c-1.4,3.4-2.1,7.2-2.1,11.1c0,16.5,13.5,30,30,30h24.1c5.5,0,10-4.5,10-10
			s-4.5-10-10-10H70c-5.5,0-10-4.5-10-10s4.5-10,10-10h20c5.5,0,10-4.5,10-10s-4.5-10-10-10c-14,0-26,0-40,0c-5.5,0-10-4.5-10-10
			s4.5-10,10-10h40c5.5,0,10-4.5,10-10s-4.5-10-10-10c-9.1,0-44.2,0-60,0c-5.5,0-10-4.5-10-10s4.5-10,10-10h60c5.5,0,10-4.5,10-10
			s-4.5-10-10-10H50c-5.5,0-10-4.5-10-10s4.5-10,10-10h100c5.5,0,10-4.5,10-10v-10h25.2c23.9,0,45.3,13.2,55.8,34.4
			c1.7,3.4,5.2,5.6,9,5.6h82v90c0,3.5,0.6,6.9,1.7,10H270c-1.6,0-3.1,0.4-4.5,1.1l-11.2,5.6c-17.7,8.7-37.2,13.4-56.6,13.4h-13.9
			c-5.5,0-10,4.5-10,10s4.5,10,10,10h13.9c22.4,0,45-5.3,65.5-15.5l9.1-4.5H362c3.9,0,7.6-0.8,11.1-2.1
			c3.5,12.7,15.1,22.1,28.9,22.1s25.5-9.4,28.9-22.1c3.4,1.4,7.2,2.1,11.1,2.1c13.8,0,25.5-9.4,28.9-22.1c3.4,1.4,7.2,2.1,11.1,2.1
			c16.5,0,30-13.5,30-30V322c0-1.5-0.3-3-1-4.2c-1.9-16.9-6.9-33.6-14.5-49l-4.5-9.1V150c0-3.9-0.8-7.6-2.1-11.1
			C502.6,135.5,512,123.8,512,110z M140,332H50c-3.5,0-6.9,0.6-10,1.7V250c0-1.6-0.4-3.1-1.1-4.5c-2.3-5.8-18.9-30.3-18.9-67.7V70
			c0-5.5,4.5-10,10-10s10,4.5,10,10v20c0,5.5,4.5,10,10,10s10-4.5,10-10V50c0-5.5,4.5-10,10-10s10,4.5,10,10v40c0,5.5,4.5,10,10,10
			s10-4.5,10-10c0-9.1,0-44.2,0-60c0-5.5,4.5-10,10-10s10,4.5,10,10v60c0,5.5,4.5,10,10,10c5.5,0,10-4.5,10-10V50
			c0-5.5,4.5-10,10-10s10,4.5,10,10v100c0,5.5,4.5,10,10,10h10v25.2c0,23.5-13.5,45.5-34.4,55.8c-3.4,1.7-5.6,5.2-5.6,9V332z
			 M185.2,312H160v-56.1c24.8-14.8,40-41.3,40-70.7V160h56.1c14.8,24.8,41.3,40,70.7,40H352v56.1c-24.8,14.8-40,41.3-40,70.7V352
			h-56.1C241.2,327.2,214.6,312,185.2,312L185.2,312z M492,442c0,5.5-4.5,10-10,10s-10-4.5-10-10v-20c0-5.5-4.5-10-10-10
			s-10,4.5-10,10v40c0,5.5-4.5,10-10,10s-10-4.5-10-10v-40c0-5.5-4.5-10-10-10s-10,4.5-10,10v60c0,5.5-4.5,10-10,10s-10-4.5-10-10
			v-60c0-5.5-4.5-10-10-10s-10,4.5-10,10v40c0,5.5-4.5,10-10,10s-10-4.5-10-10V362c0-5.5-4.5-10-10-10h-10v-25.2
			c0-23.9,13.2-45.3,34.4-55.8c3.4-1.7,5.6-5.2,5.6-9v-82h90c3.5,0,6.9-0.6,10-1.7V262c0,1.6,0.4,3.1,1.1,4.5l5.6,11.2
			c8.7,17.7,13.4,37.2,13.4,56.6V442z M482,120h-60c-5.5,0-10,4.5-10,10c0,5.5,4.5,10,10,10h40c5.5,0,10,4.5,10,10s-4.5,10-10,10
			H362c-5.5,0-10,4.5-10,10v10h-25.2c-23.5,0-45.5-13.5-55.8-34.4c-1.7-3.4-5.2-5.6-9-5.6h-82V50c0-3.5-0.6-6.9-1.7-10H262
			c1.6,0,3.1-0.4,4.5-1.1c5.8-2.3,30.3-18.9,67.7-18.9H442c5.5,0,10,4.5,10,10s-4.5,10-10,10h-20c-5.5,0-10,4.5-10,10s4.5,10,10,10
			h40c5.5,0,10,4.5,10,10s-4.5,10-10,10h-40c-5.5,0-10,4.5-10,10s4.5,10,10,10h60c5.5,0,10,4.5,10,10S487.5,120,482,120z"/>
		<circle class="st0" cx="140" cy="499" r="10"/>
	</g>
</g>
</svg>
