<?xml version="1.0" encoding="utf-8"?>
<!-- Generator: Adobe Illustrator 25.3.1, SVG Export Plug-In . SVG Version: 6.00 Build 0)  -->
<svg version="1.1" id="Capa_1" xmlns:svgjs="http://svgjs.com/svgjs"
	 xmlns="http://www.w3.org/2000/svg" xmlns:xlink="http://www.w3.org/1999/xlink" x="0px" y="0px" viewBox="0 0 512 512"
	 style="enable-background:new 0 0 512 512;" xml:space="preserve">
<style type="text/css">
	.st0{fill:#F08827;}
</style>
<g>
	<g>
		<g id="Page-1_89_">
			<g id="_x30_90---Entreprenuerial-Studies" transform="translate(0 -1)">
				<path id="Shape_323_" class="st0" d="M486.4,444.7h-3.3l20.2-175.3c1.1-9.7-2-19.4-8.4-26.6c-6.5-7.3-15.7-11.4-25.5-11.4H311.2
					c0-0.6,0.1-1.2,0.1-1.8v-97.1c-0.1-35.2-14.2-68.9-39.3-93.6S212.9,0.5,177.7,1C105.1,3.3,47.6,63.1,48.2,135.8v93.9
					c0,25.3,17.7,47.2,42.4,52.6l-2.1,0.8C38.4,301.2,3.7,347.4,0.3,400.7c-0.2,3.2-0.3,6.5-0.3,9.9v68.3C0,497.7,15.3,513,34.1,513
					h452.3c14.1,0,25.6-11.5,25.6-25.6v-17.1C512,456.2,500.5,444.7,486.4,444.7L486.4,444.7z M482.1,254.2
					c3.2,3.6,4.8,8.4,4.2,13.3l-20.4,177.3H216.7l-16.9-147v-0.1l-3.5-30.2c-0.6-4.8,0.9-9.6,4.2-13.2c3.2-3.7,7.9-5.7,12.8-5.7h256
					C474.2,248.5,478.9,250.6,482.1,254.2z M223.2,228.4c-0.9,1-1.8,2-2.8,3h-7.1c-9.8,0-19.1,4.2-25.5,11.5
					c-2.7,3.1-4.8,6.6-6.2,10.5c-0.6,0.1-1.3,0.1-1.9,0.1c-8.4-0.8-16.4-3.8-23.3-8.5c-7.5-4.5-14.4-10.1-20.2-16.6
					c-4.4-5.4-7.8-11.5-10-18.1l-9.6-28.7c-1.2-3.5-4.4-5.8-8.1-5.8c-9.5,0-17.3-7.7-17.3-17.3c0-9.5,7.7-17.3,17.3-17.3
					c4.7,0,8.5-3.8,8.5-8.5v-20.1c9.3-4,16.9-11.1,21.6-20c12.3,10.5,36,22.5,79.9,22.5c11.5,0,21.7,15.4,24.7,21.3
					c1.4,2.9,4.4,4.7,7.6,4.7c9.5,0,17.3,7.7,17.3,17.3c0,9.5-7.7,17.3-17.3,17.3c-3.7,0-6.9,2.4-8.1,5.8l-9.5,28.6
					C231.2,216.9,227.7,223,223.2,228.4L223.2,228.4z M151.7,261.9c8.5,5.1,18,8,27.9,8.7l2.3,20.4c-9.9,0.3-19.8-1.2-29.2-4.5
					c-5.1-1.5-9.8-4-13.9-7.4C144.3,274.3,148.6,268.5,151.7,261.9L151.7,261.9z M65.3,229.6v-93.9C64.7,72.4,114.7,20.2,178,18.1
					c30.6-0.4,60.2,11.4,82,32.9c21.8,21.5,34.2,50.8,34.2,81.5v97.1c0,0.6-0.1,1.2-0.1,1.8H242c3.1-4.9,5.6-10.2,7.5-15.7l7.8-23.4
					c16.5-3.1,28.3-17.6,28-34.3c-0.3-16.8-12.6-30.9-29.2-33.4c-5.2-8.5-18.5-26.5-37.5-26.5c-63.4,0-76.2-26.9-76.3-27
					c-1.5-3.8-5.5-6-9.5-5.2c-4,0.8-6.9,4.3-6.9,8.4c-0.3,11.5-8.2,21.3-19.4,24.1c-3.8,1-6.5,4.4-6.5,8.3v18.6
					c-15.6,4-26.4,18.3-25.9,34.4c0.5,16.1,12.2,29.7,28,32.6l7.8,23.4c2.9,8.6,7.3,16.6,13.1,23.6c4.2,4.8,9,9.2,14.2,13.1
					c-2,5.4-5.3,10.3-9.7,14.1h-25.5C81.8,266.4,65.3,249.9,65.3,229.6L65.3,229.6z M17.1,478.9v-68.3c0-3.1,0.1-6.1,0.2-9
					c3.1-46.5,33.4-86.8,77.2-102.6l29.2-11c6.2,7,14.3,12,23.3,14.6c10.5,3.7,21.5,5.5,32.6,5.5c1.4,0,2.8-0.2,4.3-0.3l15.7,136.9
					h-3.3c-14.1,0-25.6,11.5-25.6,25.6v17.1c0,2.9,0.6,5.8,1.6,8.5H76.8v-93.9c0-4.7-3.8-8.5-8.5-8.5c-4.7,0-8.5,3.8-8.5,8.5v93.9
					H34.1C24.7,495.9,17.1,488.3,17.1,478.9z M494.9,487.4c0,4.7-3.8,8.5-8.5,8.5H196.3c-4.7,0-8.5-3.8-8.5-8.5v-17.1
					c0-4.7,3.8-8.5,8.5-8.5h290.1c4.7,0,8.5,3.8,8.5,8.5V487.4z"/>
				<path id="Shape_322_" class="st0" d="M341.3,410.6c28.3,0,51.2-22.9,51.2-51.2c0-28.3-22.9-51.2-51.2-51.2
					c-28.3,0-51.2,22.9-51.2,51.2C290.2,387.7,313.1,410.6,341.3,410.6z M341.3,325.3c18.9,0,34.1,15.3,34.1,34.1
					s-15.3,34.1-34.1,34.1c-18.9,0-34.1-15.3-34.1-34.1S322.5,325.3,341.3,325.3z"/>
			</g>
		</g>
	</g>
</g>
</svg>
