<?xml version="1.0" encoding="utf-8"?>
<!-- Generator: Adobe Illustrator 25.3.1, SVG Export Plug-In . SVG Version: 6.00 Build 0)  -->
<svg version="1.1" id="Capa_1" xmlns:svgjs="http://svgjs.com/svgjs"
	 xmlns="http://www.w3.org/2000/svg" xmlns:xlink="http://www.w3.org/1999/xlink" x="0px" y="0px" viewBox="0 0 512 512"
	 style="enable-background:new 0 0 512 512;" xml:space="preserve">
<style type="text/css">
	.st0{fill:#F08827;}
	.st1{fill:#FFFFFF;}
</style>
<g>
	<g>
		<g>
			<path class="st0" d="M508.9,236.9c-7.5-15.3-26-21.7-41.4-14.2l-19.6,9.6c0,0,0,0,0,0c14.1-7.1,23.9-21.7,23.9-38.5
				c0-23.1-18.2-41.9-41-43c-10.5-20.6-30.6-33.4-45.8-40.6c-20.2-9.5-45.7-16-76.1-19.3c-10.7-18-30-29-51.1-29h-10.5
				c-21.6,0-41,11.4-51.6,29.9c-8.3,1.1-16.3,2.4-23.8,4c10.8-32,40.8-54.1,75.5-54.1h10.5c28.1,0,53.6,14.4,68.2,38.5
				c2.1,3.5,6.8,4.7,10.3,2.5c3.5-2.1,4.7-6.8,2.5-10.3c-17.1-28.2-48.1-45.8-81-45.8h-10.5c-44.3,0-82.3,30.5-92.2,73.2
				c-10.7,3-20.4,6.7-29.1,10.9c-25.9,12.5-38.4,28.1-44.4,39.9c-22.8,1.1-41,20-41,43c0,16.7,9.6,31.3,23.6,38.4l0,0l-19.3-9.5
				c-7.4-3.6-15.8-4.1-23.6-1.5c-7.8,2.7-14.1,8.3-17.7,15.7c-3.6,7.4-4.1,15.8-1.5,23.6c2.7,7.8,8.2,14.1,15.7,17.7l30.8,15
				c8.4,4.1,17.6,6.5,27,7v88c0,38.2,27.8,70.4,65.2,76.2c6,12.3,18.6,20.8,33.1,20.8c14.2,0,26.5-8.1,32.6-19.8h17.3
				c6.1,11.8,18.5,19.8,32.6,19.8c14.2,0,26.5-8.1,32.6-19.8H306c6.1,11.8,18.5,19.8,32.6,19.8c20.3,0,36.8-16.5,36.8-36.8
				c0-16-13-64.2-36.8-64.2c-32.1,0-36.8,65.4-36.7,66.1h-9.1c0-0.6-7.4-66.1-36.7-66.1s-36.8,65.4-36.7,66.1h-9.1
				c0-0.6-8.8-66.1-36.7-66.1c-23.7,0-36.8,48.1-36.8,64.1c-27-6.9-46.5-31.5-46.5-60.1V236.8H211c4.1,0,7.5-3.4,7.5-7.5
				s-3.4-7.5-7.5-7.5H83.4c-15.5,0-28.1-12.6-28.1-28.1s12.6-28.1,28.1-28.1h345.3c15.5,0,28.1,12.6,28.1,28.1s-12.6,28.1-28.1,28.1
				H241.3c-4.1,0-7.5,3.4-7.5,7.5s3.4,7.5,7.5,7.5h180.6v151.6c0,21.2-10.7,40.8-28.5,52.3c-3.5,2.2-4.4,6.8-2.2,10.4
				c3.2,5.2,9.1,3.1,10.4,2.2c22.2-14.3,35.4-38.5,35.4-64.9v-88c9.4-0.6,18.6-2.9,27-7l30.8-15C510,270.8,516.3,252.2,508.9,236.9z
				 M324.8,417.1c6.1-14.1,11.7-17.8,13.8-17.8c2.1,0,7.7,3.7,13.8,17.8c5.2,11.8,7.9,25,7.9,31.4c0,12-9.8,21.8-21.8,21.8
				s-21.8-9.8-21.8-21.8C316.8,442.1,319.6,429,324.8,417.1z M242.2,417.1c6.1-14.1,11.7-17.8,13.8-17.8s7.7,3.7,13.8,17.8
				c5.2,11.8,7.9,25,7.9,31.4c0,12-9.8,21.8-21.8,21.8c-12,0-21.8-9.8-21.8-21.8C234.2,442.1,237,429,242.2,417.1z M159.6,417.1
				c6.1-14.1,11.7-17.8,13.8-17.8c2.1,0,7.7,3.7,13.8,17.8c5.2,11.8,7.9,25,7.9,31.4c0,12-9.8,21.8-21.8,21.8
				c-12,0-21.8-9.8-21.8-21.8C151.7,442.1,154.4,429,159.6,417.1z M75.1,285.3c-7.1-0.5-14-2.4-20.4-5.5l-30.8-15
				c-3.8-1.9-6.7-5.1-8.1-9.1c-1.4-4-1.1-8.3,0.8-12.2c1.9-3.8,5.1-6.7,9.1-8.1c4-1.4,8.3-1.1,12.2,0.8c0,0,29,15.1,37.2,17.1V285.3
				z M247.1,76.8h10.5c11.7,0,22.6,4.5,30.7,12.3c-10.3-0.6-21.1-0.9-32.3-0.9c-14.2,0-27.5,0.5-40.2,1.5
				C224,81.6,235.1,76.8,247.1,76.8z M98.9,150.7c6-8.4,16.1-18,33.4-26.3c29-14,70.7-21.1,123.7-21.1
				c103.6,0,142.5,26.9,157.2,47.5H98.9z M488.1,264.8l-30.8,15c-6.4,3.1-13.3,5-20.4,5.5v-32.1c9.4-1.8,37.2-17.1,37.2-17.1
				c7.9-3.9,17.4-0.6,21.3,7.3C499.2,251.4,496,260.9,488.1,264.8z"/>
		</g>
	</g>
	<g>
		<g>
			<path class="st1" d="M276.4,281.6h-40.9c-8.4,0-15.2,6.8-15.2,15.2v20.4c0,19.6,16,35.6,35.6,35.6s35.6-16,35.6-35.6v-20.4
				C291.6,288.4,284.8,281.6,276.4,281.6z M256,337.8c-11.4,0-20.6-9.2-20.6-20.6c0,0,0.1-20.6,0.2-20.6v0h40.9
				c0.1,0,0.2,20.6,0.2,20.6C276.6,328.5,267.4,337.8,256,337.8z"/>
		</g>
	</g>
	<g>
		<g>
			<path class="st1" d="M336.7,276.6c-4.1,0-7.5,3.4-7.5,7.5v12.5c0,4.1,3.4,7.5,7.5,7.5s7.5-3.4,7.5-7.5v-12.5
				C344.2,280,340.8,276.6,336.7,276.6z"/>
		</g>
	</g>
	<g>
		<g>
			<path class="st1" d="M175.4,276.6c-4.1,0-7.5,3.4-7.5,7.5v12.5c0,4.1,3.4,7.5,7.5,7.5s7.5-3.4,7.5-7.5v-12.5
				C182.9,280,179.5,276.6,175.4,276.6z"/>
		</g>
	</g>
</g>
</svg>
